<mxfile host="www.draw.io" modified="2020-01-13T09:41:40.695Z" agent="Mozilla/5.0 (Macintosh; Intel Mac OS X 10_14_6) AppleWebKit/537.36 (KHTML, like Gecko) Chrome/79.0.3945.88 Safari/537.36" etag="XOYP3BXd1mnoCU_68Zl6" version="12.5.1" type="github">
  <diagram name="Page-1" id="13e1069c-82ec-6db2-03f1-153e76fe0fe0">
    <mxGraphModel dx="1350" dy="698" grid="1" gridSize="10" guides="1" tooltips="1" connect="1" arrows="1" fold="1" page="1" pageScale="1" pageWidth="1100" pageHeight="850" background="#ffffff" math="0" shadow="0">
      <root>
        <mxCell id="0"/>
        <mxCell id="1" parent="0"/>
        <mxCell id="BRFlDHZ0s_0Ae6MbZN_--1" value=":Object" style="shape=umlLifeline;perimeter=lifelinePerimeter;whiteSpace=wrap;html=1;container=1;collapsible=0;recursiveResize=0;outlineConnect=0;rounded=1;shadow=0;comic=0;labelBackgroundColor=none;strokeWidth=1;fontFamily=Verdana;fontSize=12;align=center;" vertex="1" parent="1">
          <mxGeometry x="240" y="80" width="100" height="580" as="geometry"/>
        </mxCell>
        <mxCell id="BRFlDHZ0s_0Ae6MbZN_--2" value="" style="html=1;points=[];perimeter=orthogonalPerimeter;rounded=0;shadow=0;comic=0;labelBackgroundColor=none;strokeWidth=1;fontFamily=Verdana;fontSize=12;align=center;" vertex="1" parent="BRFlDHZ0s_0Ae6MbZN_--1">
          <mxGeometry x="45" y="100" width="10" height="440" as="geometry"/>
        </mxCell>
        <mxCell id="BRFlDHZ0s_0Ae6MbZN_--3" value=":Object" style="shape=umlLifeline;perimeter=lifelinePerimeter;whiteSpace=wrap;html=1;container=1;collapsible=0;recursiveResize=0;outlineConnect=0;rounded=1;shadow=0;comic=0;labelBackgroundColor=none;strokeWidth=1;fontFamily=Verdana;fontSize=12;align=center;" vertex="1" parent="1">
          <mxGeometry x="400" y="80" width="100" height="580" as="geometry"/>
        </mxCell>
        <mxCell id="BRFlDHZ0s_0Ae6MbZN_--4" value="" style="html=1;points=[];perimeter=orthogonalPerimeter;rounded=0;shadow=0;comic=0;labelBackgroundColor=none;strokeWidth=1;fontFamily=Verdana;fontSize=12;align=center;" vertex="1" parent="BRFlDHZ0s_0Ae6MbZN_--3">
          <mxGeometry x="45" y="120" width="10" height="410" as="geometry"/>
        </mxCell>
        <mxCell id="BRFlDHZ0s_0Ae6MbZN_--5" value=":Object" style="shape=umlLifeline;perimeter=lifelinePerimeter;whiteSpace=wrap;html=1;container=1;collapsible=0;recursiveResize=0;outlineConnect=0;rounded=1;shadow=0;comic=0;labelBackgroundColor=none;strokeWidth=1;fontFamily=Verdana;fontSize=12;align=center;" vertex="1" parent="1">
          <mxGeometry x="540" y="80" width="100" height="580" as="geometry"/>
        </mxCell>
        <mxCell id="BRFlDHZ0s_0Ae6MbZN_--6" value=":Object" style="shape=umlLifeline;perimeter=lifelinePerimeter;whiteSpace=wrap;html=1;container=1;collapsible=0;recursiveResize=0;outlineConnect=0;rounded=1;shadow=0;comic=0;labelBackgroundColor=none;strokeWidth=1;fontFamily=Verdana;fontSize=12;align=center;" vertex="1" parent="1">
          <mxGeometry x="680" y="80" width="100" height="580" as="geometry"/>
        </mxCell>
        <mxCell id="BRFlDHZ0s_0Ae6MbZN_--7" value=":Object" style="shape=umlLifeline;perimeter=lifelinePerimeter;whiteSpace=wrap;html=1;container=1;collapsible=0;recursiveResize=0;outlineConnect=0;rounded=1;shadow=0;comic=0;labelBackgroundColor=none;strokeWidth=1;fontFamily=Verdana;fontSize=12;align=center;" vertex="1" parent="1">
          <mxGeometry x="100" y="80" width="100" height="580" as="geometry"/>
        </mxCell>
        <mxCell id="BRFlDHZ0s_0Ae6MbZN_--8" value="" style="html=1;points=[];perimeter=orthogonalPerimeter;rounded=0;shadow=0;comic=0;labelBackgroundColor=none;strokeWidth=1;fontFamily=Verdana;fontSize=12;align=center;" vertex="1" parent="BRFlDHZ0s_0Ae6MbZN_--7">
          <mxGeometry x="45" y="100" width="10" height="440" as="geometry"/>
        </mxCell>
        <mxCell id="BRFlDHZ0s_0Ae6MbZN_--9" value="" style="html=1;points=[];perimeter=orthogonalPerimeter;rounded=0;shadow=0;comic=0;labelBackgroundColor=none;strokeWidth=1;fontFamily=Verdana;fontSize=12;align=center;" vertex="1" parent="1">
          <mxGeometry x="585" y="220" width="10" height="220" as="geometry"/>
        </mxCell>
        <mxCell id="BRFlDHZ0s_0Ae6MbZN_--10" value="" style="html=1;points=[];perimeter=orthogonalPerimeter;rounded=0;shadow=0;comic=0;labelBackgroundColor=none;strokeWidth=1;fontFamily=Verdana;fontSize=12;align=center;" vertex="1" parent="1">
          <mxGeometry x="725" y="230" width="10" height="210" as="geometry"/>
        </mxCell>
        <mxCell id="BRFlDHZ0s_0Ae6MbZN_--11" value="1.disable logging" style="html=1;verticalAlign=bottom;endArrow=block;entryX=0;entryY=0;labelBackgroundColor=none;fontFamily=Verdana;fontSize=12;edgeStyle=elbowEdgeStyle;elbow=vertical;" edge="1" parent="1" source="BRFlDHZ0s_0Ae6MbZN_--8" target="BRFlDHZ0s_0Ae6MbZN_--2">
          <mxGeometry relative="1" as="geometry">
            <mxPoint x="220" y="190" as="sourcePoint"/>
          </mxGeometry>
        </mxCell>
        <mxCell id="BRFlDHZ0s_0Ae6MbZN_--12" value="User" style="shape=note;whiteSpace=wrap;html=1;size=14;verticalAlign=top;align=left;spacingTop=-6;rounded=0;shadow=0;comic=0;labelBackgroundColor=none;strokeWidth=1;fontFamily=Verdana;fontSize=12" vertex="1" parent="1">
          <mxGeometry x="100" y="30" width="100" height="35" as="geometry"/>
        </mxCell>
        <mxCell id="BRFlDHZ0s_0Ae6MbZN_--13" value="LOGGING CTRL" style="shape=note;whiteSpace=wrap;html=1;size=14;verticalAlign=top;align=left;spacingTop=-6;rounded=0;shadow=0;comic=0;labelBackgroundColor=none;strokeWidth=1;fontFamily=Verdana;fontSize=12" vertex="1" parent="1">
          <mxGeometry x="240" y="30" width="100" height="35" as="geometry"/>
        </mxCell>
        <mxCell id="BRFlDHZ0s_0Ae6MbZN_--14" value="RKE" style="shape=note;whiteSpace=wrap;html=1;size=14;verticalAlign=top;align=left;spacingTop=-6;rounded=0;shadow=0;comic=0;labelBackgroundColor=none;strokeWidth=1;fontFamily=Verdana;fontSize=12" vertex="1" parent="1">
          <mxGeometry x="400" y="30" width="100" height="35" as="geometry"/>
        </mxCell>
        <mxCell id="BRFlDHZ0s_0Ae6MbZN_--15" value="FLUENTD" style="shape=note;whiteSpace=wrap;html=1;size=14;verticalAlign=top;align=left;spacingTop=-6;rounded=0;shadow=0;comic=0;labelBackgroundColor=none;strokeWidth=1;fontFamily=Verdana;fontSize=12" vertex="1" parent="1">
          <mxGeometry x="540" y="30" width="100" height="35" as="geometry"/>
        </mxCell>
        <mxCell id="BRFlDHZ0s_0Ae6MbZN_--16" value="CONFIG-RELOADER" style="shape=note;whiteSpace=wrap;html=1;size=14;verticalAlign=top;align=left;spacingTop=-6;rounded=0;shadow=0;comic=0;labelBackgroundColor=none;strokeWidth=1;fontFamily=Verdana;fontSize=12" vertex="1" parent="1">
          <mxGeometry x="680" y="30" width="100" height="35" as="geometry"/>
        </mxCell>
        <mxCell id="BRFlDHZ0s_0Ae6MbZN_--17" value="" style="html=1;verticalAlign=bottom;endArrow=block;labelBackgroundColor=none;fontFamily=Verdana;fontSize=12;edgeStyle=elbowEdgeStyle;elbow=vertical;" edge="1" parent="1">
          <mxGeometry x="0.6842" y="-80" relative="1" as="geometry">
            <mxPoint x="300" y="269" as="sourcePoint"/>
            <mxPoint x="720" y="269" as="targetPoint"/>
            <Array as="points"/>
            <mxPoint as="offset"/>
          </mxGeometry>
        </mxCell>
        <mxCell id="BRFlDHZ0s_0Ae6MbZN_--18" value="3.not all logging disable, generate configure" style="text;html=1;align=center;verticalAlign=middle;resizable=0;points=[];labelBackgroundColor=#ffffff;" vertex="1" connectable="0" parent="BRFlDHZ0s_0Ae6MbZN_--17">
          <mxGeometry x="-0.7227" y="-1" relative="1" as="geometry">
            <mxPoint x="27" y="19" as="offset"/>
          </mxGeometry>
        </mxCell>
        <mxCell id="BRFlDHZ0s_0Ae6MbZN_--19" value="" style="endArrow=classic;html=1;entryX=1;entryY=0.75;entryDx=0;entryDy=0;entryPerimeter=0;" edge="1" parent="1">
          <mxGeometry width="50" height="50" relative="1" as="geometry">
            <mxPoint x="726" y="320" as="sourcePoint"/>
            <mxPoint x="595" y="320" as="targetPoint"/>
          </mxGeometry>
        </mxCell>
        <mxCell id="BRFlDHZ0s_0Ae6MbZN_--20" value="4.configure reload" style="text;html=1;align=center;verticalAlign=middle;resizable=0;points=[];labelBackgroundColor=#ffffff;" vertex="1" connectable="0" parent="BRFlDHZ0s_0Ae6MbZN_--19">
          <mxGeometry x="0.5407" y="1" relative="1" as="geometry">
            <mxPoint x="34" y="9" as="offset"/>
          </mxGeometry>
        </mxCell>
        <mxCell id="BRFlDHZ0s_0Ae6MbZN_--21" value="" style="curved=1;endArrow=classic;html=1;exitX=0.9;exitY=0.048;exitDx=0;exitDy=0;exitPerimeter=0;" edge="1" parent="1" source="BRFlDHZ0s_0Ae6MbZN_--2">
          <mxGeometry width="50" height="50" relative="1" as="geometry">
            <mxPoint x="100" y="730" as="sourcePoint"/>
            <mxPoint x="294" y="260" as="targetPoint"/>
            <Array as="points">
              <mxPoint x="350" y="201"/>
              <mxPoint x="350" y="250"/>
            </Array>
          </mxGeometry>
        </mxCell>
        <mxCell id="BRFlDHZ0s_0Ae6MbZN_--22" value="2.check all logging status" style="text;html=1;align=center;verticalAlign=middle;resizable=0;points=[];autosize=1;" vertex="1" parent="1">
          <mxGeometry x="283" y="227" width="150" height="20" as="geometry"/>
        </mxCell>
        <mxCell id="BRFlDHZ0s_0Ae6MbZN_--23" value="" style="html=1;verticalAlign=bottom;endArrow=block;labelBackgroundColor=none;fontFamily=Verdana;fontSize=12;edgeStyle=elbowEdgeStyle;elbow=vertical;" edge="1" parent="1" source="BRFlDHZ0s_0Ae6MbZN_--2">
          <mxGeometry x="1" y="-176" relative="1" as="geometry">
            <mxPoint x="305" y="380" as="sourcePoint"/>
            <mxPoint x="440" y="391" as="targetPoint"/>
            <Array as="points">
              <mxPoint x="340" y="391"/>
            </Array>
            <mxPoint x="166" y="-117" as="offset"/>
          </mxGeometry>
        </mxCell>
        <mxCell id="BRFlDHZ0s_0Ae6MbZN_--24" value="3.all logging disable,remove app" style="text;html=1;align=center;verticalAlign=middle;resizable=0;points=[];labelBackgroundColor=#ffffff;" vertex="1" connectable="0" parent="BRFlDHZ0s_0Ae6MbZN_--23">
          <mxGeometry x="-0.7227" y="-1" relative="1" as="geometry">
            <mxPoint x="56" y="18" as="offset"/>
          </mxGeometry>
        </mxCell>
        <mxCell id="BRFlDHZ0s_0Ae6MbZN_--25" value="remove" style="endArrow=classic;html=1;exitX=1.2;exitY=0.498;exitDx=0;exitDy=0;exitPerimeter=0;entryX=-0.1;entryY=0.832;entryDx=0;entryDy=0;entryPerimeter=0;" edge="1" parent="1" source="BRFlDHZ0s_0Ae6MbZN_--4" target="BRFlDHZ0s_0Ae6MbZN_--9">
          <mxGeometry x="0.1603" y="-16" width="50" height="50" relative="1" as="geometry">
            <mxPoint x="100" y="730" as="sourcePoint"/>
            <mxPoint x="150" y="680" as="targetPoint"/>
            <mxPoint as="offset"/>
          </mxGeometry>
        </mxCell>
        <mxCell id="BRFlDHZ0s_0Ae6MbZN_--26" value="remove" style="endArrow=classic;html=1;exitX=1.3;exitY=0.566;exitDx=0;exitDy=0;exitPerimeter=0;" edge="1" parent="1" source="BRFlDHZ0s_0Ae6MbZN_--4">
          <mxGeometry x="0.3233" y="-18" width="50" height="50" relative="1" as="geometry">
            <mxPoint x="464" y="414" as="sourcePoint"/>
            <mxPoint x="720" y="432" as="targetPoint"/>
            <mxPoint as="offset"/>
          </mxGeometry>
        </mxCell>
      </root>
    </mxGraphModel>
  </diagram>
</mxfile>
